<mxfile host="app.diagrams.net" agent="Mozilla/5.0 (Windows NT 10.0; Win64; x64) AppleWebKit/537.36 (KHTML, like Gecko) Chrome/139.0.0.0 Safari/537.36" version="28.1.2">
  <diagram name="Page-1" id="ieTdkj7odI_XsCE0zaq_">
    <mxGraphModel dx="786" dy="1597" grid="1" gridSize="10" guides="1" tooltips="1" connect="1" arrows="1" fold="1" page="1" pageScale="1" pageWidth="850" pageHeight="1100" math="0" shadow="0">
      <root>
        <mxCell id="0" />
        <mxCell id="1" parent="0" />
        <mxCell id="TJpOoHI0xaf4hRqcmIGe-1" value="&lt;h1&gt;&lt;font style=&quot;font-weight: normal; font-size: 12px;&quot;&gt;í ½í³‹&lt;/font&gt;&lt;font style=&quot;font-size: 14px;&quot;&gt; Detailed Task Plan with Time Estimates&lt;/font&gt;&lt;/h1&gt;&lt;h3&gt;&lt;font style=&quot;font-size: 12px;&quot;&gt;1. Design &amp;amp; Views Planning (4h)&lt;/font&gt;&lt;/h3&gt;&lt;h1 data-end=&quot;243&quot; data-start=&quot;198&quot;&gt;&lt;ul&gt;&lt;li&gt;&lt;span style=&quot;font-weight: normal;&quot;&gt;&lt;font style=&quot;font-size: 12px;&quot;&gt;Sketch layout for Manager Overview (task list + toolbar).&lt;/font&gt;&lt;/span&gt;&lt;/li&gt;&lt;li&gt;&lt;span style=&quot;font-weight: normal;&quot;&gt;&lt;font style=&quot;font-size: 12px;&quot;&gt;Sketch layout for Detail Views (per task type or just one view for all types?).&lt;/font&gt;&lt;/span&gt;&lt;/li&gt;&lt;li&gt;&lt;span style=&quot;font-weight: normal;&quot;&gt;&lt;font style=&quot;font-size: 12px;&quot;&gt;Identify common UI parts (header, buttons, dialogs).&lt;/font&gt;&lt;/span&gt;&lt;/li&gt;&lt;li&gt;&lt;span style=&quot;font-weight: normal;&quot;&gt;&lt;font style=&quot;font-size: 12px;&quot;&gt;Decide which UI controls (Table/List, ObjectPage, Dialog) to use???&lt;/font&gt;&lt;/span&gt;&lt;/li&gt;&lt;/ul&gt;&lt;hr&gt;&lt;/h1&gt;&lt;h3&gt;&lt;font style=&quot;font-size: 12px;&quot;&gt;2. Research &amp;amp; Setup (Easy UI5, Boilerplate) (4h)&lt;/font&gt;&lt;/h3&gt;&lt;h1 data-end=&quot;243&quot; data-start=&quot;198&quot;&gt;&lt;ul&gt;&lt;li&gt;&lt;span style=&quot;font-weight: normal;&quot;&gt;&lt;font style=&quot;font-size: 12px;&quot;&gt;Research Easy UI5 generator options.&lt;/font&gt;&lt;/span&gt;&lt;/li&gt;&lt;li&gt;&lt;span style=&quot;font-weight: normal;&quot;&gt;&lt;font style=&quot;font-size: 12px;&quot;&gt;Install prerequisites: ( Yeoman generator.?? )&lt;/font&gt;&lt;/span&gt;&lt;/li&gt;&lt;li&gt;&lt;span style=&quot;font-weight: normal;&quot;&gt;&lt;font style=&quot;font-size: 12px;&quot;&gt;Generate boilerplate project&amp;nbsp;&lt;/font&gt;&lt;/span&gt;&lt;/li&gt;&lt;li&gt;&lt;span style=&quot;font-weight: normal;&quot;&gt;&lt;font style=&quot;font-size: 12px;&quot;&gt;Verify app runs locally&amp;nbsp;&lt;/font&gt;&lt;/span&gt;&lt;/li&gt;&lt;/ul&gt;&lt;hr&gt;&lt;/h1&gt;&lt;h3&gt;&lt;font style=&quot;font-size: 12px;&quot;&gt;3. GitHub Repository Setup (2h)&lt;/font&gt;&lt;/h3&gt;&lt;h1 data-end=&quot;243&quot; data-start=&quot;198&quot;&gt;&lt;ul&gt;&lt;li&gt;&lt;span style=&quot;font-weight: normal;&quot;&gt;&lt;font style=&quot;font-size: 12px;&quot;&gt;Create GitHub repository.&lt;/font&gt;&lt;/span&gt;&lt;/li&gt;&lt;li&gt;&lt;span style=&quot;font-weight: normal;&quot;&gt;&lt;font style=&quot;font-size: 12px;&quot;&gt;Initialize project with &lt;code spellcheck=&quot;false&quot; class=&quot;skipProofing&quot;&gt;.gitignore&lt;/code&gt; and &lt;code spellcheck=&quot;false&quot; class=&quot;skipProofing&quot;&gt;README.md&lt;/code&gt;.&lt;/font&gt;&lt;/span&gt;&lt;/li&gt;&lt;li&gt;&lt;span style=&quot;font-weight: normal;&quot;&gt;&lt;font style=&quot;font-size: 12px;&quot;&gt;Push initial boilerplate commit.&lt;/font&gt;&lt;/span&gt;&lt;/li&gt;&lt;/ul&gt;&lt;hr&gt;&lt;/h1&gt;&lt;h3&gt;&lt;font style=&quot;font-size: 12px;&quot;&gt;4. Architecture Design (3h)&lt;/font&gt;&lt;/h3&gt;&lt;h1 data-end=&quot;243&quot; data-start=&quot;198&quot;&gt;&lt;ul&gt;&lt;li&gt;&lt;span style=&quot;font-weight: normal;&quot;&gt;&lt;font style=&quot;font-size: 12px;&quot;&gt;Define app layers: Component, manifest, models, views, fragments, i18n.&lt;/font&gt;&lt;/span&gt;&lt;/li&gt;&lt;li&gt;&lt;span style=&quot;font-weight: normal;&quot;&gt;&lt;font style=&quot;font-size: 12px;&quot;&gt;Define routing structure: overview â†’ detail (task type).&lt;/font&gt;&lt;/span&gt;&lt;/li&gt;&lt;/ul&gt;&lt;hr&gt;&lt;/h1&gt;&lt;h3&gt;&lt;font style=&quot;font-size: 12px;&quot;&gt;5. Mock Data (JSON) (3h)&lt;/font&gt;&lt;/h3&gt;&lt;h1 data-end=&quot;243&quot; data-start=&quot;198&quot;&gt;&lt;ul&gt;&lt;li&gt;&lt;span style=&quot;font-weight: normal;&quot;&gt;&lt;font style=&quot;font-size: 12px;&quot;&gt;Create local JSON files for the 3 task types.&lt;/font&gt;&lt;/span&gt;&lt;/li&gt;&lt;li&gt;&lt;span style=&quot;font-weight: normal;&quot;&gt;&lt;font style=&quot;font-size: 12px;&quot;&gt;Define schema: taskId, type, date, status, assignedTo, etc.&lt;/font&gt;&lt;/span&gt;&lt;/li&gt;&lt;li&gt;&lt;span style=&quot;font-weight: normal;&quot;&gt;&lt;font style=&quot;font-size: 12px;&quot;&gt;Add a &lt;code spellcheck=&quot;false&quot; class=&quot;skipProofing&quot;&gt;JSONModel&lt;/code&gt; in Component.js to load mock data.&lt;/font&gt;&lt;/span&gt;&lt;/li&gt;&lt;/ul&gt;&lt;hr&gt;&lt;/h1&gt;&lt;h3&gt;&lt;font style=&quot;font-size: 12px;&quot;&gt;6. Implement Basic Views (6h)&lt;/font&gt;&lt;/h3&gt;&lt;h1 data-end=&quot;243&quot; data-start=&quot;198&quot;&gt;&lt;ul&gt;&lt;li&gt;&lt;span style=&quot;font-weight: normal;&quot;&gt;&lt;font style=&quot;font-size: 12px;&quot;&gt;Build Manager Overview View (table/list + search/filter toolbar).&lt;/font&gt;&lt;/span&gt;&lt;/li&gt;&lt;li&gt;&lt;span style=&quot;font-weight: normal;&quot;&gt;&lt;font style=&quot;font-size: 12px;&quot;&gt;Bind table to JSONModel.&lt;/font&gt;&lt;/span&gt;&lt;/li&gt;&lt;li&gt;&lt;span style=&quot;font-weight: normal;&quot;&gt;&lt;font style=&quot;font-size: 12px;&quot;&gt;Create placeholder Detail Views (empty layout, routing ready).&lt;/font&gt;&lt;/span&gt;&lt;/li&gt;&lt;li&gt;&lt;span style=&quot;font-weight: normal;&quot;&gt;&lt;font style=&quot;font-size: 12px;&quot;&gt;Set up i18n model in Component.js.&lt;/font&gt;&lt;/span&gt;&lt;/li&gt;&lt;li&gt;&lt;span style=&quot;font-weight: normal;&quot;&gt;&lt;font style=&quot;font-size: 12px;&quot;&gt;Wire navigation from overview row â†’ detail page â†’&amp;nbsp;back to overview.&lt;/font&gt;&lt;/span&gt;&lt;/li&gt;&lt;/ul&gt;&lt;/h1&gt;&lt;h3&gt;&lt;font style=&quot;font-size: 12px;&quot;&gt;7. AJAX Research + Integration (Scope 1) (5h)&lt;/font&gt;&lt;/h3&gt;&lt;h1 data-end=&quot;243&quot; data-start=&quot;198&quot;&gt;&lt;ul&gt;&lt;li&gt;&lt;font style=&quot;font-size: 12px; font-weight: normal;&quot;&gt;Research AJAX&lt;/font&gt;&lt;/li&gt;&lt;li&gt;&lt;span style=&quot;font-weight: normal;&quot;&gt;&lt;font style=&quot;font-size: 12px;&quot;&gt;Replace static JSON with AJAX calls to load mock data.&lt;/font&gt;&lt;/span&gt;&lt;/li&gt;&lt;li&gt;&lt;span style=&quot;font-weight: normal;&quot;&gt;&lt;font style=&quot;font-size: 12px;&quot;&gt;Ensure async model loading works.&lt;/font&gt;&lt;/span&gt;&lt;/li&gt;&lt;/ul&gt;&lt;/h1&gt;&lt;h3&gt;&lt;font style=&quot;font-size: 12px;&quot;&gt;8. Routing (4h)&lt;/font&gt;&lt;/h3&gt;&lt;h1 data-end=&quot;243&quot; data-start=&quot;198&quot;&gt;&lt;div&gt;&lt;/div&gt;&lt;/h1&gt;&lt;h1 data-end=&quot;243&quot; data-start=&quot;198&quot;&gt;&lt;ul&gt;&lt;li&gt;&lt;span style=&quot;font-weight: normal;&quot;&gt;&lt;font style=&quot;font-size: 12px;&quot;&gt;Configure&amp;nbsp;&lt;code spellcheck=&quot;false&quot; class=&quot;skipProofing&quot;&gt;manifest.json&lt;/code&gt;&amp;nbsp;routing: overview + 3 detail views.&lt;/font&gt;&lt;/span&gt;&lt;/li&gt;&lt;li&gt;&lt;span style=&quot;font-weight: normal;&quot;&gt;&lt;font style=&quot;font-size: 12px;&quot;&gt;Implement navigation in controller (&lt;code spellcheck=&quot;false&quot; class=&quot;skipProofing&quot;&gt;navTo&lt;/code&gt;).&lt;/font&gt;&lt;/span&gt;&lt;/li&gt;&lt;li&gt;&lt;span style=&quot;font-weight: normal;&quot;&gt;&lt;font style=&quot;font-size: 12px;&quot;&gt;Pass route parameters (task type + task id).&lt;/font&gt;&lt;/span&gt;&lt;/li&gt;&lt;li&gt;&lt;span style=&quot;font-weight: normal;&quot;&gt;&lt;font style=&quot;font-size: 12px;&quot;&gt;Display correct detail view based on route.&lt;/font&gt;&lt;/span&gt;&lt;/li&gt;&lt;/ul&gt;&lt;/h1&gt;&lt;h1 data-end=&quot;243&quot; data-start=&quot;198&quot;&gt;&lt;div&gt;&lt;/div&gt;&lt;hr&gt;&lt;/h1&gt;&lt;h3&gt;&lt;font style=&quot;font-size: 12px;&quot;&gt;9. Reusable Parts (Fragments) (4h)&lt;/font&gt;&lt;/h3&gt;&lt;h1 data-end=&quot;243&quot; data-start=&quot;198&quot;&gt;&lt;ul&gt;&lt;li&gt;&lt;span style=&quot;font-weight: normal;&quot;&gt;&lt;font style=&quot;font-size: 12px;&quot;&gt;Create common header fragment.&lt;/font&gt;&lt;/span&gt;&lt;/li&gt;&lt;li&gt;&lt;span style=&quot;font-weight: normal;&quot;&gt;&lt;font style=&quot;font-size: 12px;&quot;&gt;Create Approve/Reject Dialog fragment.&lt;/font&gt;&lt;/span&gt;&lt;/li&gt;&lt;li&gt;&lt;span style=&quot;font-weight: normal;&quot;&gt;&lt;font style=&quot;font-size: 12px;&quot;&gt;Integrate fragments into detail views.&lt;/font&gt;&lt;/span&gt;&lt;/li&gt;&lt;/ul&gt;&lt;/h1&gt;&lt;h1 data-end=&quot;243&quot; data-start=&quot;198&quot;&gt;&lt;hr&gt;&lt;/h1&gt;&lt;h3&gt;&lt;font style=&quot;font-size: 12px;&quot;&gt;10. i18n / Translations (4h)&lt;/font&gt;&lt;/h3&gt;&lt;h1 data-end=&quot;243&quot; data-start=&quot;198&quot;&gt;&lt;ul&gt;&lt;li&gt;&lt;span style=&quot;font-size: 12px; font-weight: 400;&quot;&gt;research the translation topic + implement it&amp;nbsp;&lt;/span&gt;&lt;/li&gt;&lt;/ul&gt;&lt;hr&gt;&lt;/h1&gt;&lt;h3&gt;&lt;font style=&quot;font-size: 12px;&quot;&gt;11. Approval / Rejection Logic (5h)&lt;/font&gt;&lt;/h3&gt;&lt;h1 data-end=&quot;243&quot; data-start=&quot;198&quot;&gt;&lt;ul&gt;&lt;li&gt;&lt;span style=&quot;font-weight: normal;&quot;&gt;&lt;font style=&quot;font-size: 12px;&quot;&gt;Implement Approve action (update task status).&lt;/font&gt;&lt;/span&gt;&lt;/li&gt;&lt;li&gt;&lt;span style=&quot;font-weight: normal;&quot;&gt;&lt;font style=&quot;font-size: 12px;&quot;&gt;Implement Reject action (open dialog, capture reason, update model).&lt;/font&gt;&lt;/span&gt;&lt;/li&gt;&lt;li&gt;&lt;span style=&quot;font-weight: normal;&quot;&gt;&lt;font style=&quot;font-size: 12px;&quot;&gt;Update overview list with new task status.&lt;/font&gt;&lt;/span&gt;&lt;/li&gt;&lt;/ul&gt;&lt;/h1&gt;&lt;h1 data-end=&quot;243&quot; data-start=&quot;198&quot;&gt;&lt;hr&gt;&lt;/h1&gt;&lt;h3&gt;&lt;font style=&quot;font-size: 12px;&quot;&gt;12. OData V4 Integration (Scope 2) (6h)&lt;/font&gt;&lt;/h3&gt;&lt;h1 data-end=&quot;243&quot; data-start=&quot;198&quot;&gt;&lt;ul&gt;&lt;li&gt;&lt;span style=&quot;font-weight: normal;&quot;&gt;&lt;font style=&quot;font-size: 12px;&quot;&gt;Configure OData V4 model in &lt;code spellcheck=&quot;false&quot; class=&quot;skipProofing&quot;&gt;manifest.json&lt;/code&gt;.&lt;/font&gt;&lt;/span&gt;&lt;/li&gt;&lt;li&gt;&lt;span style=&quot;font-weight: normal;&quot;&gt;&lt;font style=&quot;font-size: 12px;&quot;&gt;Rebind overview list + detail views to OData model.&lt;/font&gt;&lt;/span&gt;&lt;/li&gt;&lt;li&gt;&lt;span style=&quot;font-weight: normal;&quot;&gt;&lt;font style=&quot;font-size: 12px;&quot;&gt;Adjust filtering/sorting to work with OData.&lt;/font&gt;&lt;/span&gt;&lt;/li&gt;&lt;/ul&gt;&lt;/h1&gt;" style="text;html=1;align=left;verticalAlign=middle;resizable=0;points=[];autosize=1;strokeColor=#d79b00;fillColor=#ffe6cc;" parent="1" vertex="1">
          <mxGeometry x="20" y="-1090" width="460" height="2110" as="geometry" />
        </mxCell>
      </root>
    </mxGraphModel>
  </diagram>
</mxfile>
